<svg xmlns="http://www.w3.org/2000/svg" xmlns:xlink="http://www.w3.org/1999/xlink" width="42" height="53" viewBox="0 0 42 53" fill="none"><g opacity="1" transform="translate(0 0)  rotate(0 21 26.500000000000007)"><path id="多边形" fill-rule="evenodd" style="fill:#4596FF" transform="translate(0 5.16877023060925)  rotate(0 21 21.236822282026896)" opacity="1" d="M2.81,10.62L2.81,31.86L21,42.47L39.19,31.86L39.19,10.62L21,0L2.81,10.62Z " /><path id="多边形" fill-rule="evenodd" style="fill:#97BFFF" transform="translate(2.813466520523918 5.16877023060925)  rotate(0 9.093266739736606 10.796146115370654)" opacity="1" d="M0,10.62L18.19,21.59L18.19,0L0,10.62Z " /><path id="多边形" fill-rule="evenodd" style="fill:#0056C8" transform="translate(20.956123559222927 26.671525474327687)  rotate(-180 9.093266739738668 10.545777248903585)" opacity="1" d="M0,10.62L18.19,21.09L18.19,0L0,10.62Z " /><path id="多边形" fill-rule="evenodd" style="fill:#1486FF" transform="translate(7.350689340922352 29.21752577088274)  rotate(-120 9.093266739738668 10.545777248903585)" opacity="1" d="M0,10.62L18.19,21.09L18.19,0L0,10.62Z " /><path id="多边形" fill-rule="evenodd" style="fill:#6CAEFF" transform="translate(16.52646153290263 2.6909197313101014)  rotate(-300 9.093266739738668 10.545777248903585)" opacity="1" d="M0,10.62L18.19,21.09L18.19,0L0,10.62Z " /></g></svg>